<svg width="1866" height="476" viewBox="0 0 1866 476" fill="none" xmlns="http://www.w3.org/2000/svg">
<g clip-path="url(#clip0_123_2)">
<path d="M121 429.25C92.65 429.25 70.95 421.2 55.9 405.1C40.85 389 33.325 366.25 33.325 336.85V143.65C33.325 114.25 40.85 91.5 55.9 75.4C70.95 59.3 92.65 51.25 121 51.25C149.35 51.25 171.05 59.3 186.1 75.4C201.15 91.5 208.675 114.25 208.675 143.65V336.85C208.675 366.25 201.15 389 186.1 405.1C171.05 421.2 149.35 429.25 121 429.25ZM121 376.75C140.95 376.75 150.925 364.675 150.925 340.525V139.975C150.925 115.825 140.95 103.75 121 103.75C101.05 103.75 91.075 115.825 91.075 139.975V340.525C91.075 364.675 101.05 376.75 121 376.75ZM242.48 56.5H314.93L371.105 276.475H372.155V56.5H423.605V424H364.28L294.98 155.725H293.93V424H242.48V56.5ZM618.942 56.5H704.517C734.267 56.5 755.967 63.5 769.617 77.5C783.267 91.15 790.092 112.325 790.092 141.025V163.6C790.092 201.75 777.492 225.9 752.292 236.05V237.1C766.292 241.3 776.092 249.875 781.692 262.825C787.642 275.775 790.617 293.1 790.617 314.8V379.375C790.617 389.875 790.967 398.45 791.667 405.1C792.367 411.4 794.117 417.7 796.917 424H738.117C736.017 418.05 734.617 412.45 733.917 407.2C733.217 401.95 732.867 392.5 732.867 378.85V311.65C732.867 294.85 730.067 283.125 724.467 276.475C719.217 269.825 709.942 266.5 696.642 266.5H676.692V424H618.942V56.5ZM697.692 214C709.242 214 717.817 211.025 723.417 205.075C729.367 199.125 732.342 189.15 732.342 175.15V146.8C732.342 133.5 729.892 123.875 724.992 117.925C720.442 111.975 713.092 109 702.942 109H676.692V214H697.692ZM825.435 56.5H982.935V109H883.185V206.125H962.46V258.625H883.185V371.5H982.935V424H825.435V56.5ZM1087.01 429.25C1059.01 429.25 1037.83 421.375 1023.48 405.625C1009.13 389.525 1001.96 366.6 1001.96 336.85V315.85H1056.56V341.05C1056.56 364.85 1066.53 376.75 1086.48 376.75C1096.28 376.75 1103.63 373.95 1108.53 368.35C1113.78 362.4 1116.41 352.95 1116.41 340C1116.41 324.6 1112.91 311.125 1105.91 299.575C1098.91 287.675 1085.96 273.5 1067.06 257.05C1043.26 236.05 1026.63 217.15 1017.18 200.35C1007.73 183.2 1003.01 163.95 1003.01 142.6C1003.01 113.55 1010.36 91.15 1025.06 75.4C1039.76 59.3 1061.11 51.25 1089.11 51.25C1116.76 51.25 1137.58 59.3 1151.58 75.4C1165.93 91.15 1173.11 113.9 1173.11 143.65V158.875H1118.51V139.975C1118.51 127.375 1116.06 118.275 1111.16 112.675C1106.26 106.725 1099.08 103.75 1089.63 103.75C1070.38 103.75 1060.76 115.475 1060.76 138.925C1060.76 152.225 1064.26 164.65 1071.26 176.2C1078.61 187.75 1091.73 201.75 1110.63 218.2C1134.78 239.2 1151.41 258.275 1160.51 275.425C1169.61 292.575 1174.16 312.7 1174.16 335.8C1174.16 365.9 1166.63 389 1151.58 405.1C1136.88 421.2 1115.36 429.25 1087.01 429.25ZM1286.02 429.25C1258.02 429.25 1236.67 421.375 1221.97 405.625C1207.27 389.525 1199.92 366.6 1199.92 336.85V56.5H1257.67V341.05C1257.67 353.65 1260.12 362.75 1265.02 368.35C1270.27 373.95 1277.62 376.75 1287.07 376.75C1296.52 376.75 1303.7 373.95 1308.6 368.35C1313.85 362.75 1316.47 353.65 1316.47 341.05V56.5H1372.12V336.85C1372.12 366.6 1364.77 389.525 1350.07 405.625C1335.37 421.375 1314.02 429.25 1286.02 429.25ZM1408 56.5H1490.43L1527.18 319.525H1528.23L1564.98 56.5H1647.4V424H1592.8V145.75H1591.75L1549.75 424H1501.45L1459.45 145.75H1458.4V424H1408V56.5ZM1685.25 56.5H1842.75V109H1743V206.125H1822.27V258.625H1743V371.5H1842.75V424H1685.25V56.5Z" fill="black"/>
<g clip-path="url(#clip1_123_2)">
<path d="M519.625 365.062H501.946V313H554V359.659L524.045 424H499L519.625 365.062Z" fill="black"/>
<path d="M501 154H553V206H501V154Z" fill="black"/>
</g>
<path d="M63.3398 469H57.1875V449.203H63.5859C69.3555 449.203 72.7734 452.922 72.7734 459.074C72.7734 465.254 69.3555 469 63.3398 469ZM59.6484 466.812H63.1758C68.043 466.812 70.3672 463.887 70.3672 459.074C70.3672 454.289 68.043 451.391 63.4219 451.391H59.6484V466.812ZM81.7564 469.301C77.4634 469.301 74.8111 466.266 74.8111 461.699C74.8111 457.133 77.4908 453.961 81.5377 453.961C84.6548 453.961 87.9361 455.875 87.9361 461.371V462.355H77.1627C77.272 465.5 79.1041 467.223 81.7564 467.223C83.5338 467.223 84.6548 466.457 85.2017 465.527H87.7173C87.0064 467.77 84.8189 469.301 81.7564 469.301ZM77.19 460.359H85.5572C85.5572 457.871 83.9713 456.039 81.5377 456.039C78.9673 456.039 77.3267 458.062 77.19 460.359ZM98.6964 458.008C98.3683 456.777 97.4386 455.957 95.6886 455.957C93.8566 455.957 92.5441 456.941 92.5441 458.199C92.5441 459.184 93.337 459.867 95.087 460.277L97.3019 460.824C99.9542 461.453 101.267 462.766 101.267 464.844C101.267 467.414 99.1613 469.301 95.4425 469.301C92.1066 469.301 90.1105 467.824 89.7277 465.117H92.1886C92.462 466.566 93.5284 467.25 95.3878 467.25C97.4933 467.25 98.8331 466.375 98.8331 464.98C98.8331 463.941 98.0948 463.23 96.3995 462.848L94.1573 462.328C91.5597 461.727 90.1925 460.305 90.1925 458.336C90.1925 455.793 92.4073 453.961 95.6886 453.961C98.7511 453.961 100.693 455.602 100.993 458.008H98.6964ZM103.769 469V454.152H106.121V469H103.769ZM104.945 451.691C104.043 451.691 103.304 451.008 103.304 450.133C103.304 449.258 104.043 448.574 104.945 448.574C105.847 448.574 106.613 449.258 106.613 450.133C106.613 451.008 105.847 451.691 104.945 451.691ZM115.322 474.879C111.74 474.879 109.307 473.32 109.033 470.559H111.494C111.822 472.062 113.217 472.828 115.322 472.828C117.865 472.828 119.424 471.734 119.424 469.273V466.266H119.233C118.74 467.086 117.783 468.781 114.912 468.781C111.303 468.781 108.596 466.047 108.596 461.371C108.596 456.805 111.221 453.961 114.94 453.961C117.811 453.961 118.74 455.711 119.287 456.504H119.479V454.152H121.776V469.41C121.776 473.238 118.932 474.879 115.322 474.879ZM115.24 466.676C117.947 466.676 119.479 464.734 119.479 461.453C119.479 458.281 118.002 456.066 115.24 456.066C112.397 456.066 110.975 458.473 110.975 461.453C110.975 464.543 112.424 466.676 115.24 466.676ZM127.313 460.086V469H124.962V454.152H127.231V456.477H127.423C128.134 454.973 129.501 453.961 131.77 453.961C134.778 453.961 136.774 455.793 136.774 459.566V469H134.423V459.73C134.423 457.434 133.165 456.066 131.059 456.066C128.899 456.066 127.313 457.516 127.313 460.086ZM139.988 469V454.152H142.339V469H139.988ZM141.163 451.691C140.261 451.691 139.523 451.008 139.523 450.133C139.523 449.258 140.261 448.574 141.163 448.574C142.066 448.574 142.831 449.258 142.831 450.133C142.831 451.008 142.066 451.691 141.163 451.691ZM147.877 460.086V469H145.525V454.152H147.795V456.477H147.986C148.697 454.973 150.064 453.961 152.334 453.961C155.342 453.961 157.338 455.793 157.338 459.566V469H154.986V459.73C154.986 457.434 153.728 456.066 151.623 456.066C149.463 456.066 147.877 457.516 147.877 460.086ZM166.567 474.879C162.985 474.879 160.551 473.32 160.278 470.559H162.739C163.067 472.062 164.461 472.828 166.567 472.828C169.11 472.828 170.668 471.734 170.668 469.273V466.266H170.477C169.985 467.086 169.028 468.781 166.157 468.781C162.547 468.781 159.84 466.047 159.84 461.371C159.84 456.805 162.465 453.961 166.184 453.961C169.055 453.961 169.985 455.711 170.532 456.504H170.723V454.152H173.02V469.41C173.02 473.238 170.176 474.879 166.567 474.879ZM166.485 466.676C169.192 466.676 170.723 464.734 170.723 461.453C170.723 458.281 169.247 456.066 166.485 456.066C163.641 456.066 162.219 458.473 162.219 461.453C162.219 464.543 163.668 466.676 166.485 466.676ZM186.009 469L181.498 454.152H183.986L187.158 465.473H187.295L190.439 454.152H192.955L196.045 465.418H196.209L199.38 454.152H201.841L197.33 469H195.005L191.779 457.68H191.56L188.361 469H186.009ZM203.879 469V454.152H206.231V469H203.879ZM205.055 451.691C204.152 451.691 203.414 451.008 203.414 450.133C203.414 449.258 204.152 448.574 205.055 448.574C205.957 448.574 206.723 449.258 206.723 450.133C206.723 451.008 205.957 451.691 205.055 451.691ZM215.897 454.152V456.121H212.78V464.734C212.78 466.648 213.71 466.949 214.721 466.949C215.159 466.949 215.76 466.922 216.116 466.895V469.082C215.76 469.137 215.159 469.191 214.475 469.191C212.507 469.191 210.401 467.961 210.401 465.336V456.121H208.159V454.152H210.401V450.598H212.78V454.152H215.897ZM221.052 460.086V469H218.7V449.203H221.052V456.477H221.243C221.927 454.945 223.267 453.961 225.618 453.961C228.654 453.961 230.677 455.766 230.677 459.566V469H228.325V459.73C228.325 457.406 227.04 456.066 224.908 456.066C222.693 456.066 221.052 457.516 221.052 460.086ZM240.659 469V449.203H247.385C252.034 449.203 254.139 451.965 254.139 455.492C254.139 458.992 252.034 461.809 247.413 461.809H243.12V469H240.659ZM243.12 459.621H247.303C250.448 459.621 251.705 457.844 251.705 455.492C251.705 453.113 250.448 451.391 247.276 451.391H243.12V459.621ZM266.102 462.902V454.152H268.427V469H266.102V466.484H265.938C265.227 467.988 263.778 469.191 261.536 469.191C258.72 469.191 256.724 467.359 256.724 463.586V454.152H259.075V463.422C259.075 465.555 260.415 466.922 262.302 466.922C263.97 466.922 266.102 465.664 266.102 462.902ZM271.64 469V454.152H273.91V456.422H274.074C274.621 454.918 276.152 453.906 277.902 453.906C278.257 453.906 278.859 453.934 279.132 453.961V456.34C278.968 456.285 278.312 456.176 277.71 456.176C275.578 456.176 273.992 457.652 273.992 459.648V469H271.64ZM280.869 474.578V454.152H283.139V456.504H283.412C283.904 455.711 284.834 453.961 287.705 453.961C291.424 453.961 294.022 456.914 294.022 461.617C294.022 466.32 291.424 469.301 287.732 469.301C284.889 469.301 283.904 467.551 283.412 466.73H283.221V474.578H280.869ZM283.166 461.562C283.166 464.898 284.67 467.195 287.404 467.195C290.221 467.195 291.67 464.734 291.67 461.562C291.67 458.473 290.248 456.066 287.404 456.066C284.615 456.066 283.166 458.281 283.166 461.562ZM302.594 469.301C298.548 469.301 295.813 466.266 295.813 461.645C295.813 457.023 298.548 453.961 302.594 453.961C306.614 453.961 309.321 457.023 309.321 461.645C309.321 466.266 306.614 469.301 302.594 469.301ZM302.594 467.223C305.575 467.223 306.969 464.598 306.969 461.645C306.969 458.691 305.575 456.039 302.594 456.039C299.559 456.039 298.165 458.691 298.165 461.645C298.165 464.598 299.559 467.223 302.594 467.223ZM320.109 458.008C319.78 456.777 318.851 455.957 317.101 455.957C315.269 455.957 313.956 456.941 313.956 458.199C313.956 459.184 314.749 459.867 316.499 460.277L318.714 460.824C321.366 461.453 322.679 462.766 322.679 464.844C322.679 467.414 320.573 469.301 316.855 469.301C313.519 469.301 311.523 467.824 311.14 465.117H313.601C313.874 466.566 314.941 467.25 316.8 467.25C318.905 467.25 320.245 466.375 320.245 464.98C320.245 463.941 319.507 463.23 317.812 462.848L315.57 462.328C312.972 461.727 311.605 460.305 311.605 458.336C311.605 455.793 313.82 453.961 317.101 453.961C320.163 453.961 322.105 455.602 322.405 458.008H320.109ZM331.416 469.301C327.123 469.301 324.47 466.266 324.47 461.699C324.47 457.133 327.15 453.961 331.197 453.961C334.314 453.961 337.595 455.875 337.595 461.371V462.355H326.822C326.931 465.5 328.763 467.223 331.416 467.223C333.193 467.223 334.314 466.457 334.861 465.527H337.377C336.666 467.77 334.478 469.301 331.416 469.301ZM326.849 460.359H335.217C335.217 457.871 333.631 456.039 331.197 456.039C328.627 456.039 326.986 458.062 326.849 460.359ZM341.766 469.164C340.809 469.164 339.989 468.371 340.016 467.387C339.989 466.43 340.809 465.637 341.766 465.637C342.723 465.637 343.516 466.43 343.516 467.387C343.516 468.371 342.723 469.164 341.766 469.164Z" fill="#515151"/>
<path d="M989.988 454.18C989.77 452.238 987.992 451.117 985.613 451.117C982.988 451.117 981.266 452.484 981.266 454.371C981.266 456.449 983.59 457.215 985.094 457.598L987.062 458.145C989.195 458.691 992.668 459.922 992.668 463.613C992.668 466.84 990.07 469.355 985.477 469.355C981.211 469.355 978.559 467.141 978.34 463.859H980.855C981.074 466.074 983.125 467.113 985.477 467.113C988.211 467.113 990.262 465.719 990.262 463.559C990.262 461.645 988.43 460.906 986.352 460.305L983.918 459.648C980.801 458.746 978.887 457.16 978.887 454.48C978.887 451.145 981.867 448.93 985.695 448.93C989.523 448.93 992.285 451.172 992.395 454.18H989.988ZM995.335 469V454.152H997.686V469H995.335ZM996.51 451.691C995.608 451.691 994.87 451.008 994.87 450.133C994.87 449.258 995.608 448.574 996.51 448.574C997.413 448.574 998.178 449.258 998.178 450.133C998.178 451.008 997.413 451.691 996.51 451.691ZM1003.22 460.086V469H1000.87V454.152H1003.14V456.477H1003.33C1004.04 454.973 1005.41 453.961 1007.68 453.961C1010.69 453.961 1012.68 455.793 1012.68 459.566V469H1010.33V459.73C1010.33 457.434 1009.08 456.066 1006.97 456.066C1004.81 456.066 1003.22 457.516 1003.22 460.086ZM1021.97 469.301C1017.76 469.301 1015.19 466.102 1015.19 461.645C1015.19 457.133 1017.87 453.961 1021.91 453.961C1025.09 453.961 1027.44 455.82 1027.82 458.637H1025.47C1025.14 457.27 1023.94 456.039 1021.97 456.039C1019.32 456.039 1017.54 458.227 1017.54 461.562C1017.54 465.008 1019.26 467.195 1021.97 467.195C1023.72 467.195 1025.06 466.266 1025.47 464.625H1027.82C1027.44 467.277 1025.28 469.301 1021.97 469.301ZM1036.39 469.301C1032.1 469.301 1029.45 466.266 1029.45 461.699C1029.45 457.133 1032.13 453.961 1036.17 453.961C1039.29 453.961 1042.57 455.875 1042.57 461.371V462.355H1031.8C1031.91 465.5 1033.74 467.223 1036.39 467.223C1038.17 467.223 1039.29 466.457 1039.84 465.527H1042.35C1041.64 467.77 1039.46 469.301 1036.39 469.301ZM1031.83 460.359H1040.19C1040.19 457.871 1038.61 456.039 1036.17 456.039C1033.6 456.039 1031.96 458.062 1031.83 460.359ZM1058.51 449.203V469H1056.03V451.773H1055.92L1051.1 454.973V452.484L1056.03 449.203H1058.51ZM1069.82 448.93C1073.24 448.957 1077.01 451.008 1077.01 458.309C1077.01 465.336 1074.14 469.273 1069.49 469.273C1066.02 469.273 1063.56 467.141 1063.07 463.996H1065.5C1065.94 465.773 1067.28 467.086 1069.49 467.086C1072.72 467.086 1074.69 464.297 1074.72 459.484H1074.44C1073.29 461.125 1071.49 462.109 1069.38 462.109C1065.83 462.109 1062.9 459.402 1062.9 455.574C1062.9 451.883 1065.61 448.902 1069.82 448.93ZM1069.82 451.09C1067.22 451.09 1065.28 453.113 1065.31 455.547C1065.31 458.008 1067.14 459.949 1069.74 459.949C1072.31 459.949 1074.33 457.816 1074.33 455.492C1074.33 453.223 1072.45 451.09 1069.82 451.09ZM1086.43 448.93C1089.85 448.957 1093.63 451.008 1093.63 458.309C1093.63 465.336 1090.75 469.273 1086.11 469.273C1082.63 469.273 1080.17 467.141 1079.68 463.996H1082.11C1082.55 465.773 1083.89 467.086 1086.11 467.086C1089.33 467.086 1091.3 464.297 1091.33 459.484H1091.06C1089.91 461.125 1088.1 462.109 1086 462.109C1082.44 462.109 1079.52 459.402 1079.52 455.574C1079.52 451.883 1082.22 448.902 1086.43 448.93ZM1086.43 451.09C1083.84 451.09 1081.89 453.113 1081.92 455.547C1081.92 458.008 1083.75 459.949 1086.35 459.949C1088.92 459.949 1090.95 457.816 1090.95 455.492C1090.95 453.223 1089.06 451.09 1086.43 451.09ZM1103.05 448.93C1106.46 448.957 1110.24 451.008 1110.24 458.309C1110.24 465.336 1107.37 469.273 1102.72 469.273C1099.25 469.273 1096.78 467.141 1096.29 463.996H1098.73C1099.16 465.773 1100.5 467.086 1102.72 467.086C1105.94 467.086 1107.91 464.297 1107.94 459.484H1107.67C1106.52 461.125 1104.71 462.109 1102.61 462.109C1099.05 462.109 1096.13 459.402 1096.13 455.574C1096.13 451.883 1098.83 448.902 1103.05 448.93ZM1103.05 451.09C1100.45 451.09 1098.51 453.113 1098.53 455.547C1098.53 458.008 1100.37 459.949 1102.96 459.949C1105.53 459.949 1107.56 457.816 1107.56 455.492C1107.56 453.223 1105.67 451.09 1103.05 451.09Z" fill="#515151"/>
<path d="M1479.09 451.391V449.203H1494.02V451.391H1487.82V469H1485.33V451.391H1479.09ZM1498.8 460.086V469H1496.44V449.203H1498.8V456.477H1498.99C1499.67 454.945 1501.01 453.961 1503.36 453.961C1506.4 453.961 1508.42 455.766 1508.42 459.566V469H1506.07V459.73C1506.07 457.406 1504.78 456.066 1502.65 456.066C1500.44 456.066 1498.8 457.516 1498.8 460.086ZM1511.63 469V454.152H1513.99V469H1511.63ZM1512.81 451.691C1511.91 451.691 1511.17 451.008 1511.17 450.133C1511.17 449.258 1511.91 448.574 1512.81 448.574C1513.71 448.574 1514.48 449.258 1514.48 450.133C1514.48 451.008 1513.71 451.691 1512.81 451.691ZM1525.43 458.008C1525.1 456.777 1524.17 455.957 1522.42 455.957C1520.59 455.957 1519.28 456.941 1519.28 458.199C1519.28 459.184 1520.07 459.867 1521.82 460.277L1524.03 460.824C1526.69 461.453 1528 462.766 1528 464.844C1528 467.414 1525.89 469.301 1522.18 469.301C1518.84 469.301 1516.84 467.824 1516.46 465.117H1518.92C1519.19 466.566 1520.26 467.25 1522.12 467.25C1524.23 467.25 1525.57 466.375 1525.57 464.98C1525.57 463.941 1524.83 463.23 1523.13 462.848L1520.89 462.328C1518.29 461.727 1516.93 460.305 1516.93 458.336C1516.93 455.793 1519.14 453.961 1522.42 453.961C1525.48 453.961 1527.43 455.602 1527.73 458.008H1525.43ZM1536.97 469V454.152H1539.24V456.422H1539.4C1539.95 454.918 1541.48 453.906 1543.23 453.906C1543.59 453.906 1544.19 453.934 1544.46 453.961V456.34C1544.3 456.285 1543.64 456.176 1543.04 456.176C1540.91 456.176 1539.32 457.652 1539.32 459.648V469H1536.97ZM1551.94 469.301C1547.65 469.301 1545 466.266 1545 461.699C1545 457.133 1547.68 453.961 1551.72 453.961C1554.84 453.961 1558.12 455.875 1558.12 461.371V462.355H1547.35C1547.46 465.5 1549.29 467.223 1551.94 467.223C1553.72 467.223 1554.84 466.457 1555.39 465.527H1557.9C1557.19 467.77 1555 469.301 1551.94 469.301ZM1547.37 460.359H1555.74C1555.74 457.871 1554.16 456.039 1551.72 456.039C1549.15 456.039 1547.51 458.062 1547.37 460.359ZM1568.88 458.008C1568.55 456.777 1567.62 455.957 1565.87 455.957C1564.04 455.957 1562.73 456.941 1562.73 458.199C1562.73 459.184 1563.52 459.867 1565.27 460.277L1567.49 460.824C1570.14 461.453 1571.45 462.766 1571.45 464.844C1571.45 467.414 1569.35 469.301 1565.63 469.301C1562.29 469.301 1560.29 467.824 1559.91 465.117H1562.37C1562.65 466.566 1563.71 467.25 1565.57 467.25C1567.68 467.25 1569.02 466.375 1569.02 464.98C1569.02 463.941 1568.28 463.23 1566.58 462.848L1564.34 462.328C1561.74 461.727 1560.38 460.305 1560.38 458.336C1560.38 455.793 1562.59 453.961 1565.87 453.961C1568.94 453.961 1570.88 455.602 1571.18 458.008H1568.88ZM1583.33 462.902V454.152H1585.66V469H1583.33V466.484H1583.17C1582.46 467.988 1581.01 469.191 1578.77 469.191C1575.95 469.191 1573.95 467.359 1573.95 463.586V454.152H1576.31V463.422C1576.31 465.555 1577.64 466.922 1579.53 466.922C1581.2 466.922 1583.33 465.664 1583.33 462.902ZM1588.87 469V454.152H1591.14V456.477H1591.33C1591.96 454.891 1593.38 453.961 1595.32 453.961C1597.26 453.961 1598.58 454.891 1599.29 456.477H1599.45C1600.22 454.945 1601.78 453.961 1603.91 453.961C1606.56 453.961 1608.45 455.574 1608.45 459.074V469H1606.1V459.102C1606.1 456.914 1604.7 456.066 1603.09 456.066C1601.01 456.066 1599.83 457.461 1599.83 459.348V469H1597.46V458.855C1597.46 457.188 1596.25 456.066 1594.56 456.066C1592.78 456.066 1591.22 457.57 1591.22 459.73V469H1588.87ZM1617.9 469.301C1613.6 469.301 1610.95 466.266 1610.95 461.699C1610.95 457.133 1613.63 453.961 1617.68 453.961C1620.79 453.961 1624.08 455.875 1624.08 461.371V462.355H1613.3C1613.41 465.5 1615.24 467.223 1617.9 467.223C1619.67 467.223 1620.79 466.457 1621.34 465.527H1623.86C1623.15 467.77 1620.96 469.301 1617.9 469.301ZM1613.33 460.359H1621.7C1621.7 457.871 1620.11 456.039 1617.68 456.039C1615.11 456.039 1613.47 458.062 1613.33 460.359ZM1633.05 469V454.152H1635.4V469H1633.05ZM1634.22 451.691C1633.32 451.691 1632.58 451.008 1632.58 450.133C1632.58 449.258 1633.32 448.574 1634.22 448.574C1635.12 448.574 1635.89 449.258 1635.89 450.133C1635.89 451.008 1635.12 451.691 1634.22 451.691ZM1646.84 458.008C1646.51 456.777 1645.58 455.957 1643.83 455.957C1642 455.957 1640.69 456.941 1640.69 458.199C1640.69 459.184 1641.48 459.867 1643.23 460.277L1645.45 460.824C1648.1 461.453 1649.41 462.766 1649.41 464.844C1649.41 467.414 1647.31 469.301 1643.59 469.301C1640.25 469.301 1638.26 467.824 1637.87 465.117H1640.33C1640.61 466.566 1641.67 467.25 1643.53 467.25C1645.64 467.25 1646.98 466.375 1646.98 464.98C1646.98 463.941 1646.24 463.23 1644.54 462.848L1642.3 462.328C1639.7 461.727 1638.34 460.305 1638.34 458.336C1638.34 455.793 1640.55 453.961 1643.83 453.961C1646.9 453.961 1648.84 455.602 1649.14 458.008H1646.84ZM1658.38 469V454.152H1660.65V456.477H1660.84C1661.47 454.891 1662.89 453.961 1664.83 453.961C1666.78 453.961 1668.09 454.891 1668.8 456.477H1668.96C1669.73 454.945 1671.29 453.961 1673.42 453.961C1676.07 453.961 1677.96 455.574 1677.96 459.074V469H1675.61V459.102C1675.61 456.914 1674.21 456.066 1672.6 456.066C1670.52 456.066 1669.35 457.461 1669.35 459.348V469H1666.97V458.855C1666.97 457.188 1665.76 456.066 1664.07 456.066C1662.29 456.066 1660.73 457.57 1660.73 459.73V469H1658.38ZM1687.24 469.301C1683.2 469.301 1680.46 466.266 1680.46 461.645C1680.46 457.023 1683.2 453.961 1687.24 453.961C1691.26 453.961 1693.97 457.023 1693.97 461.645C1693.97 466.266 1691.26 469.301 1687.24 469.301ZM1687.24 467.223C1690.22 467.223 1691.62 464.598 1691.62 461.645C1691.62 458.691 1690.22 456.039 1687.24 456.039C1684.21 456.039 1682.81 458.691 1682.81 461.645C1682.81 464.598 1684.21 467.223 1687.24 467.223ZM1696.5 469V454.152H1698.77V456.422H1698.93C1699.48 454.918 1701.01 453.906 1702.76 453.906C1703.12 453.906 1703.72 453.934 1703.99 453.961V456.34C1703.83 456.285 1703.17 456.176 1702.57 456.176C1700.44 456.176 1698.85 457.652 1698.85 459.648V469H1696.5ZM1711.47 469.301C1707.18 469.301 1704.53 466.266 1704.53 461.699C1704.53 457.133 1707.21 453.961 1711.25 453.961C1714.37 453.961 1717.65 455.875 1717.65 461.371V462.355H1706.88C1706.99 465.5 1708.82 467.223 1711.47 467.223C1713.25 467.223 1714.37 466.457 1714.92 465.527H1717.43C1716.72 467.77 1714.53 469.301 1711.47 469.301ZM1706.9 460.359H1715.27C1715.27 457.871 1713.69 456.039 1711.25 456.039C1708.68 456.039 1707.04 458.062 1706.9 460.359ZM1733.1 454.152V456.121H1729.98V464.734C1729.98 466.648 1730.91 466.949 1731.93 466.949C1732.36 466.949 1732.96 466.922 1733.32 466.895V469.082C1732.96 469.137 1732.36 469.191 1731.68 469.191C1729.71 469.191 1727.6 467.961 1727.6 465.336V456.121H1725.36V454.152H1727.6V450.598H1729.98V454.152H1733.1ZM1738.26 460.086V469H1735.9V449.203H1738.26V456.477H1738.45C1739.13 454.945 1740.47 453.961 1742.82 453.961C1745.86 453.961 1747.88 455.766 1747.88 459.566V469H1745.53V459.73C1745.53 457.406 1744.24 456.066 1742.11 456.066C1739.9 456.066 1738.26 457.516 1738.26 460.086ZM1750.38 464.789C1750.38 461.371 1753.39 460.605 1755.96 460.414C1756.9 460.346 1759.31 460.223 1759.98 460.195V458.992C1759.98 457.105 1758.86 456.012 1756.62 456.012C1754.73 456.012 1753.61 456.887 1753.28 458.008H1750.82C1751.12 455.629 1753.45 453.961 1756.73 453.961C1758.67 453.961 1762.3 454.535 1762.3 459.211V469H1759.98V466.977H1759.87C1759.38 467.988 1758.01 469.355 1755.44 469.355C1752.63 469.355 1750.38 467.688 1750.38 464.789ZM1752.73 464.898C1752.73 466.457 1754.05 467.25 1755.85 467.25C1758.5 467.25 1759.98 465.473 1759.98 463.613V462.109L1756.23 462.383C1754.1 462.52 1752.73 463.285 1752.73 464.898ZM1767.87 460.086V469H1765.52V454.152H1767.79V456.477H1767.98C1768.69 454.973 1770.06 453.961 1772.33 453.961C1775.33 453.961 1777.33 455.793 1777.33 459.566V469H1774.98V459.73C1774.98 457.434 1773.72 456.066 1771.62 456.066C1769.46 456.066 1767.87 457.516 1767.87 460.086ZM1789.36 449.203V469H1787.01V449.203H1789.36ZM1791.84 464.789C1791.84 461.371 1794.85 460.605 1797.42 460.414C1798.36 460.346 1800.77 460.223 1801.44 460.195V458.992C1801.44 457.105 1800.32 456.012 1798.07 456.012C1796.19 456.012 1795.07 456.887 1794.74 458.008H1792.28C1792.58 455.629 1794.9 453.961 1798.18 453.961C1800.12 453.961 1803.76 454.535 1803.76 459.211V469H1801.44V466.977H1801.33C1800.83 467.988 1799.47 469.355 1796.9 469.355C1794.08 469.355 1791.84 467.688 1791.84 464.789ZM1794.19 464.898C1794.19 466.457 1795.5 467.25 1797.31 467.25C1799.96 467.25 1801.44 465.473 1801.44 463.613V462.109L1797.69 462.383C1795.56 462.52 1794.19 463.285 1794.19 464.898ZM1807.93 474.578C1807.41 474.578 1806.92 474.551 1806.62 474.523V472.418C1806.86 472.445 1807.41 472.473 1807.77 472.473C1808.72 472.473 1809.52 472.391 1810.31 470.23L1810.75 469.109L1805.25 454.152H1807.82L1811.87 465.938H1812.03L1816.08 454.152H1818.65L1812.36 471.133C1811.49 473.457 1810.04 474.578 1807.93 474.578ZM1826.21 469.301C1822.16 469.301 1819.43 466.266 1819.43 461.645C1819.43 457.023 1822.16 453.961 1826.21 453.961C1830.23 453.961 1832.94 457.023 1832.94 461.645C1832.94 466.266 1830.23 469.301 1826.21 469.301ZM1826.21 467.223C1829.19 467.223 1830.59 464.598 1830.59 461.645C1830.59 458.691 1829.19 456.039 1826.21 456.039C1823.18 456.039 1821.78 458.691 1821.78 461.645C1821.78 464.598 1823.18 467.223 1826.21 467.223ZM1844.85 462.902V454.152H1847.17V469H1844.85V466.484H1844.68C1843.97 467.988 1842.52 469.191 1840.28 469.191C1837.46 469.191 1835.47 467.359 1835.47 463.586V454.152H1837.82V463.422C1837.82 465.555 1839.16 466.922 1841.05 466.922C1842.71 466.922 1844.85 465.664 1844.85 462.902ZM1856.86 454.152V456.121H1853.75V464.734C1853.75 466.648 1854.68 466.949 1855.69 466.949C1856.13 466.949 1856.73 466.922 1857.08 466.895V469.082C1856.73 469.137 1856.13 469.191 1855.44 469.191C1853.47 469.191 1851.37 467.961 1851.37 465.336V456.121H1849.13V454.152H1851.37V450.598H1853.75V454.152H1856.86ZM1861.01 469.164C1860.05 469.164 1859.23 468.371 1859.26 467.387C1859.23 466.43 1860.05 465.637 1861.01 465.637C1861.96 465.637 1862.76 466.43 1862.76 467.387C1862.76 468.371 1861.96 469.164 1861.01 469.164Z" fill="#515151"/>
</g>
<defs>
<clipPath id="clip0_123_2">
<rect width="1866" height="476" fill="white"/>
</clipPath>
<clipPath id="clip1_123_2">
<rect width="55" height="270" fill="white" transform="translate(499 154)"/>
</clipPath>
</defs>
</svg>
