<svg width="200" height="18" viewBox="0 0 200 18" fill="none" xmlns="http://www.w3.org/2000/svg">
<path d="M0.831055 0.807556V16.5075H3.94306V9.61945H9.69196V6.67424H3.94306V3.77652H13.4454V0.807556H0.831055Z" fill="black"/>
<path d="M27.5568 16.8875C27.0816 16.8875 26.6778 16.6975 26.3215 16.3649C25.9651 16.0087 25.7988 15.5574 25.7988 15.0348C25.7988 14.5123 25.9651 14.061 26.2977 13.7048C26.6303 13.3485 27.0579 13.1585 27.533 13.1585C28.0556 13.1585 28.4595 13.3485 28.7683 13.7048C29.0771 14.061 29.2434 14.5123 29.2434 15.0111C29.2434 15.5336 29.0771 15.9849 28.7445 16.3412C28.4595 16.6975 28.0319 16.8875 27.5568 16.8875Z" fill="black"/>
<path d="M60.7669 0.807556L55.018 8.83564L49.3404 0.807556H46.8936V16.5075H50.0056V6.79299L55.018 14.0373L60.0543 6.79299V16.5075H63.1663V0.807556H60.7669Z" fill="black"/>
<path d="M83.3591 0.807556H80.2471V16.555H83.3591V0.807556Z" fill="black"/>
<path d="M100.511 0.807556V16.5075H113.03V13.5385H103.623V0.807556H100.511Z" fill="black"/>
<path d="M128.02 0.807556V16.5075H140.563V13.5385H131.132V0.807556H128.02Z" fill="black"/>
<path d="M155.553 0.807556V16.5075H168.761V13.5385H158.665V9.61945H164.437V6.67424H158.665V3.77652H168.167V0.807556H155.553Z" fill="black"/>
<path d="M194.014 7.26803C194.299 7.22053 194.536 7.07801 194.75 6.86425C194.916 6.67424 195.059 6.48422 195.13 6.22295C195.201 5.96168 195.249 5.72417 195.249 5.4629C195.249 5.08287 195.178 4.7741 195.035 4.56033C194.893 4.32281 194.75 4.1803 194.584 4.06154C194.37 3.89528 194.109 3.82403 193.824 3.80028C193.539 3.77652 193.23 3.77652 192.945 3.77652H187.505V7.36304H193.182C193.467 7.33928 193.729 7.31553 194.014 7.26803ZM191.994 10.3795H187.505V16.5075H184.393V0.807556H193.396C193.657 0.807556 193.942 0.831308 194.251 0.85506C194.56 0.878811 194.893 0.950067 195.225 1.04507C195.558 1.14008 195.89 1.25884 196.223 1.44885C196.556 1.63887 196.864 1.85263 197.173 2.16141C197.696 2.68394 198.052 3.27774 198.218 3.94279C198.385 4.58408 198.456 5.17788 198.456 5.72417C198.456 6.17545 198.408 6.65048 198.29 7.14927C198.171 7.64806 197.933 8.12309 197.553 8.59813C197.007 9.28693 196.294 9.80946 195.368 10.142L199.097 16.5312H195.605L191.994 10.3795Z" fill="black"/>
</svg>
