<svg width="110" height="20" viewBox="0 0 110 20" fill="none" xmlns="http://www.w3.org/2000/svg">
<path d="M7.44881 4.98645H22.3479V0H6.20722C3.18422 0 0.701036 2.16802 0.107232 4.98645C0.0532498 5.42005 -0.000732422 5.79946 -0.000732422 6.23306C-0.000732422 6.66667 0.0532498 7.10027 0.107232 7.47968C0.215196 7.91328 0.323161 8.34688 0.485107 8.72629C0.970947 9.7561 1.61873 10.5691 2.48245 11.2195C3.50811 11.9783 4.80368 12.4661 6.20722 12.4661H14.8984C15.6001 12.4661 16.1399 13.0081 16.1399 13.7127C16.1399 14.4173 15.6001 14.9594 14.8984 14.9594H-0.000732422V19.9458H16.1399C19.163 19.9458 21.6461 17.7778 22.2399 14.9594C22.2939 14.5799 22.3479 14.1463 22.3479 13.7127C22.3479 13.2791 22.2939 12.8455 22.2399 12.4661C22.132 12.0325 22.024 11.5989 21.8621 11.2195C21.4302 10.2439 20.7284 9.37669 19.8647 8.72629C18.8391 7.96748 17.5435 7.47968 16.1399 7.47968H7.44881C6.74704 7.47968 6.20722 6.93767 6.20722 6.23306C6.20722 5.52846 6.80103 4.98645 7.44881 4.98645Z" fill="#1B1B1B"/>
<path d="M39.7842 0H34.8178C29.3116 0 24.8851 4.44444 24.8851 9.9729C24.8851 15.5014 29.3116 19.9458 34.8178 19.9458H39.7842C45.2903 19.9458 49.7169 15.5014 49.7169 9.9729C49.7169 4.44444 45.2903 0 39.7842 0ZM39.7842 14.9594H34.8178C32.0647 14.9594 29.8514 12.7371 29.8514 9.9729C29.8514 7.20867 32.0647 4.98645 34.8178 4.98645H39.7842C42.5372 4.98645 44.7505 7.20867 44.7505 9.9729C44.7505 12.7371 42.5372 14.9594 39.7842 14.9594Z" fill="#1B1B1B"/>
<path d="M99.4885 14.9594H94.4681C91.715 14.9594 89.5018 12.7371 89.5018 9.9729C89.5018 7.20867 91.715 4.98645 94.4681 4.98645H99.4345C101.27 4.98645 102.889 6.01626 103.753 7.47968H109.097C108.018 3.19783 104.077 0 99.4885 0H94.4681C88.9619 0 84.5354 4.44444 84.5354 9.9729C84.5354 15.5014 88.9619 19.9458 94.4681 19.9458H99.4345C104.077 19.9458 107.964 16.748 109.043 12.4661H103.699C102.889 13.9837 101.324 14.9594 99.4885 14.9594Z" fill="#1B1B1B"/>
<path d="M52.2001 20H57.1664V0C55.2231 1.95122 54.1434 3.03523 52.2001 4.98645V20Z" fill="#1B1B1B"/>
<path d="M57.1664 4.98645H64.67V20H69.6363V4.98645V0H62.1868L57.1664 4.98645Z" fill="#1B1B1B"/>
<path d="M82.0522 0H74.6027L69.6363 4.98645H77.0858V20H82.0522V4.98645V0Z" fill="#1B1B1B"/>
</svg>
